<?xml version="1.0" encoding="UTF-8" standalone="no" ?>
<!DOCTYPE svg PUBLIC "-//W3C//DTD SVG 1.1//EN" "http://www.w3.org/Graphics/SVG/1.1/DTD/svg11.dtd">
<svg xmlns="http://www.w3.org/2000/svg" xmlns:xlink="http://www.w3.org/1999/xlink" version="1.1" width="500" height="500" viewBox="0 0 500 500" xml:space="preserve">
<desc>Created with Fabric.js 4.6.0</desc>
<defs>
</defs>
<g transform="matrix(1.02 0 0 1.02 250 250)" id="bw2qzSKP4q_8EvIRIcWIn"  >
<g style="" vector-effect="non-scaling-stroke"   >
		<g transform="matrix(29.78 0 0 29.78 0 0)" id="raDNd2U9dTSRvouHjTACW"  >
<path style="stroke: none; stroke-width: 1; stroke-dasharray: none; stroke-linecap: butt; stroke-dashoffset: 0; stroke-linejoin: miter; stroke-miterlimit: 4; fill: rgb(43,224,128); fill-rule: nonzero; opacity: 1;" vector-effect="non-scaling-stroke"  transform=" translate(-8, -8)" d="M 0 8 C 0 3.58172 3.58172 0 8 0 C 12.41828 0 16 3.58172 16 8 C 16 12.41828 12.41828 16 8 16 C 3.58172 16 0 12.41828 0 8 z" stroke-linecap="round" />
</g>
		<g transform="matrix(0 29.78 -29.78 0 0 0)" id="QKLb_VtPrlXO4vLJGvP82"  >
<path style="stroke: none; stroke-width: 1; stroke-dasharray: none; stroke-linecap: butt; stroke-dashoffset: 0; stroke-linejoin: miter; stroke-miterlimit: 4; fill: rgb(255,255,255); fill-rule: evenodd; opacity: 1;" vector-effect="non-scaling-stroke"  transform=" translate(-14, -11)" d="M 14 17 C 17.3137 17 20 14.3137 20 11 C 20 7.68629 17.3137 5 14 5 C 10.6863 5 8 7.68629 8 11 C 8 14.3137 10.6863 17 14 17 z M 14 19 C 18.418300000000002 19 22 15.4183 22 11 C 22 6.58172 18.4183 3 14 3 C 9.58172 3 6 6.58172 6 11 C 6 15.4183 9.58172 19 14 19 z" stroke-linecap="round" />
</g>
</g>
</g>
</svg>