<?xml version="1.0" encoding="UTF-8" standalone="no" ?>
<!DOCTYPE svg PUBLIC "-//W3C//DTD SVG 1.1//EN" "http://www.w3.org/Graphics/SVG/1.1/DTD/svg11.dtd">
<svg xmlns="http://www.w3.org/2000/svg" xmlns:xlink="http://www.w3.org/1999/xlink" version="1.1" width="500" height="500" viewBox="0 0 500 500" xml:space="preserve">
<desc>Created with Fabric.js 4.6.0</desc>
<defs>
</defs>
<g transform="matrix(1.03 0 0 1.03 249.7 250)" id="SxBDtaJ_8ofER40YSVGIY"  >
<path style="stroke: rgb(37,181,9); stroke-width: 0; stroke-dasharray: none; stroke-linecap: butt; stroke-dashoffset: 0; stroke-linejoin: miter; stroke-miterlimit: 4; fill: rgb(255,255,255); fill-rule: nonzero; opacity: 1;" vector-effect="non-scaling-stroke"  transform=" translate(0, 0)" d="M 0 -227.67858 C 125.67857 -227.67858 227.67858 -125.67858000000001 227.67858 0 C 227.67858 125.67857 125.67858000000001 227.67858 0 227.67858 C -125.67857 227.67858 -227.67858 125.67858000000001 -227.67858 0 C -227.67858 -125.67857 -125.67858000000001 -227.67858 0 -227.67858 z" stroke-linecap="round" />
</g>
<g transform="matrix(49.25 0 0 49.25 249.7 250.3)" id="6OrZTo0AMHPNBje5702Lw"  >
<path style="stroke: rgb(147,111,23); stroke-width: 0; stroke-dasharray: none; stroke-linecap: butt; stroke-dashoffset: 0; stroke-linejoin: miter; stroke-miterlimit: 4; fill: rgb(49,49,49); fill-rule: nonzero; opacity: 1;" vector-effect="non-scaling-stroke"  transform=" translate(0, 0)" d="M 0 -3.57143 C 1.97143 -3.57143 3.57143 -1.9714299999999998 3.57143 0 C 3.57143 1.97143 1.9714299999999998 3.57143 0 3.57143 C -1.97143 3.57143 -3.57143 1.9714299999999998 -3.57143 0 C -3.57143 -1.97143 -1.9714299999999998 -3.57143 0 -3.57143 z" stroke-linecap="round" />
</g>
</svg>